<svg width="263" height="47" viewBox="0 0 263 47" fill="none" xmlns="http://www.w3.org/2000/svg">
<path d="M26.6333 35.952C27.8279 37.4027 28.8306 38.512 29.6413 39.28C30.4946 40.048 31.2839 40.5813 32.0093 40.88C32.7773 41.136 33.6306 41.264 34.5693 41.264L32.3293 46.448C30.4519 46.448 28.8306 46.064 27.4653 45.296C26.1426 44.528 24.7346 43.2053 23.2413 41.328L10.6973 25.328L7.04925 46H0.96925L8.84125 1.2H14.9213L11.4013 21.104L32.6493 1.328L36.3613 5.424L16.5213 23.216L26.6333 35.952ZM39.1568 46L47.0288 1.2H53.1088L45.2368 46H39.1568ZM64.3383 1.84C65.9596 1.49866 67.6876 1.22133 69.5223 1.008C71.3996 0.794666 73.4689 0.688 75.7303 0.688C79.1863 0.688 82.0663 1.30667 84.3703 2.544C86.6743 3.73867 88.3809 5.33867 89.4903 7.344C90.6423 9.30666 91.2183 11.4187 91.2183 13.68C91.2183 17.1787 90.3649 20.1227 88.6583 22.512C86.9516 24.8587 84.6049 26.6507 81.6183 27.888C78.6316 29.0827 75.2396 29.68 71.4423 29.68C70.4183 29.68 69.3943 29.6373 68.3703 29.552C67.3889 29.424 66.4716 29.2533 65.6183 29.04L62.6743 46H56.5943L64.3383 1.84ZM75.0903 5.744C73.9383 5.744 72.9143 5.78667 72.0183 5.872C71.1649 5.95733 70.3756 6.064 69.6503 6.192L66.5143 23.92C67.3676 24.176 68.2849 24.368 69.2663 24.496C70.2903 24.5813 71.2929 24.624 72.2743 24.624C76.8396 24.624 80.1463 23.664 82.1943 21.744C84.2423 19.824 85.2663 17.3707 85.2663 14.384C85.2663 11.8667 84.3703 9.79733 82.5783 8.176C80.8289 6.55467 78.3329 5.744 75.0903 5.744ZM133.61 34.672C133.61 33.4773 133.354 32.3893 132.842 31.408C132.373 30.4267 131.498 29.424 130.218 28.4C128.938 27.3333 127.104 26.1387 124.714 24.816C121.386 22.9387 119.018 21.0827 117.61 19.248C116.245 17.4133 115.562 15.0667 115.562 12.208C115.562 9.81866 116.181 7.74933 117.418 6C118.698 4.25067 120.469 2.88533 122.73 1.904C124.992 0.922666 127.594 0.431999 130.538 0.431999C133.226 0.431999 135.658 0.773332 137.834 1.456C140.01 2.096 142.037 2.97066 143.914 4.08L140.778 9.072C139.242 8.09067 137.621 7.28 135.914 6.64C134.25 6 132.288 5.68 130.026 5.68C127.509 5.68 125.482 6.23466 123.946 7.344C122.41 8.41066 121.642 9.81866 121.642 11.568C121.642 13.1467 122.176 14.5547 123.242 15.792C124.352 16.9867 126.378 18.3733 129.322 19.952C132.138 21.4453 134.293 22.9173 135.786 24.368C137.322 25.776 138.368 27.2693 138.922 28.848C139.52 30.4267 139.818 32.176 139.818 34.096C139.818 36.6987 139.136 38.96 137.77 40.88C136.448 42.7573 134.592 44.208 132.202 45.232C129.813 46.256 127.04 46.768 123.882 46.768C120.81 46.768 118.037 46.3627 115.562 45.552C113.088 44.6987 110.912 43.5253 109.034 42.032L113.002 37.104C114.453 38.4267 116.138 39.4933 118.058 40.304C120.021 41.072 122.176 41.456 124.522 41.456C127.296 41.456 129.493 40.8587 131.114 39.664C132.778 38.4267 133.61 36.7627 133.61 34.672ZM145.989 13.936H151.877L154.949 3.44H159.365L157.509 13.936H166.725L165.893 18.928H156.613L153.925 34.48C153.839 34.9493 153.775 35.3973 153.733 35.824C153.69 36.208 153.669 36.5707 153.669 36.912C153.669 38.4053 154.117 39.5787 155.013 40.432C155.909 41.2427 157.082 41.648 158.533 41.648C159.77 41.648 160.815 41.4773 161.669 41.136C162.522 40.752 163.29 40.368 163.973 39.984L164.677 44.976C163.866 45.4453 162.842 45.8507 161.605 46.192C160.41 46.576 159.066 46.768 157.573 46.768C155.994 46.768 154.458 46.448 152.965 45.808C151.514 45.168 150.319 44.1653 149.381 42.8C148.442 41.392 147.973 39.5787 147.973 37.36C147.973 36.4213 148.058 35.376 148.229 34.224L150.853 18.928H145.157L145.989 13.936ZM184.636 46.768C181.478 46.768 178.748 46.128 176.444 44.848C174.14 43.568 172.348 41.7973 171.068 39.536C169.83 37.232 169.212 34.6293 169.212 31.728C169.212 28.016 169.958 24.6667 171.452 21.68C172.988 18.6933 175.121 16.3253 177.852 14.576C180.582 12.8267 183.804 11.952 187.516 11.952C190.673 11.952 193.404 12.592 195.708 13.872C198.012 15.152 199.782 16.9227 201.02 19.184C202.3 21.4453 202.94 24.048 202.94 26.992C202.94 30.6613 202.193 34.0107 200.7 37.04C199.206 40.0267 197.073 42.3947 194.3 44.144C191.569 45.8933 188.348 46.768 184.636 46.768ZM184.828 41.648C187.388 41.648 189.564 41.0293 191.356 39.792C193.19 38.512 194.598 36.8053 195.58 34.672C196.561 32.5387 197.052 30.1493 197.052 27.504C197.052 25.5413 196.668 23.792 195.9 22.256C195.132 20.6773 194.022 19.4187 192.572 18.48C191.121 17.5413 189.372 17.072 187.324 17.072C184.806 17.072 182.63 17.712 180.796 18.992C178.961 20.2293 177.553 21.9147 176.572 24.048C175.59 26.1813 175.1 28.5707 175.1 31.216C175.1 33.136 175.484 34.8853 176.252 36.464C177.02 38.0427 178.129 39.3013 179.58 40.24C181.03 41.1787 182.78 41.648 184.828 41.648ZM212.833 22.064C212.876 21.8507 212.897 21.616 212.897 21.36C212.94 21.0613 212.961 20.7627 212.961 20.464C212.961 19.2693 212.62 18.4373 211.937 17.968C211.255 17.456 210.359 17.2 209.249 17.2L211.233 12.72C213.495 12.72 215.223 13.2747 216.417 14.384C217.655 15.4507 218.273 17.0507 218.273 19.184V20.464C219.511 17.4347 221.089 15.2587 223.009 13.936C224.972 12.6133 227.191 11.952 229.665 11.952C230.647 11.952 231.479 12.0373 232.161 12.208C232.887 12.336 233.484 12.5067 233.953 12.72L231.393 18.352C230.881 18.1387 230.348 17.9893 229.793 17.904C229.239 17.8187 228.599 17.776 227.873 17.776C226.337 17.776 224.801 18.3307 223.265 19.44C221.772 20.5067 220.407 22.2987 219.169 24.816C217.975 27.3333 216.993 30.7893 216.225 35.184L214.369 46H208.609L212.833 22.064ZM247.298 46.768C244.482 46.768 241.986 46.1707 239.81 44.976C237.676 43.7387 235.991 41.9893 234.754 39.728C233.559 37.424 232.962 34.7147 232.962 31.6C232.962 28.0587 233.687 24.7947 235.138 21.808C236.631 18.8213 238.722 16.432 241.41 14.64C244.14 12.848 247.319 11.952 250.946 11.952C253.42 11.952 255.511 12.4213 257.218 13.36C258.967 14.2987 260.311 15.5147 261.25 17.008C262.188 18.5013 262.658 20.1013 262.658 21.808C262.658 24.1547 262.103 26.096 260.994 27.632C259.884 29.168 258.455 30.3627 256.706 31.216C254.956 32.0267 253.058 32.6027 251.01 32.944C249.004 33.2853 247.084 33.456 245.25 33.456C244.098 33.456 242.946 33.4133 241.794 33.328C240.684 33.2 239.703 33.072 238.85 32.944C239.191 35.76 240.194 37.9147 241.858 39.408C243.522 40.9013 245.655 41.648 248.258 41.648C250.391 41.648 252.29 41.3707 253.954 40.816C255.618 40.2613 257.026 39.7067 258.178 39.152L258.69 44.272C257.41 44.8693 255.788 45.4453 253.826 46C251.863 46.512 249.687 46.768 247.298 46.768ZM250.498 16.816C248.492 16.816 246.679 17.328 245.058 18.352C243.436 19.3333 242.092 20.6987 241.026 22.448C240.002 24.1547 239.319 26.1173 238.978 28.336C239.959 28.5067 240.94 28.656 241.922 28.784C242.946 28.8693 244.055 28.912 245.25 28.912C248.834 28.912 251.671 28.4213 253.762 27.44C255.852 26.416 256.898 24.688 256.898 22.256C256.898 20.7627 256.3 19.4827 255.106 18.416C253.954 17.3493 252.418 16.816 250.498 16.816Z" fill="#040935"/>
</svg>
